<!-- public/assets/images/icon-set/index-theme-icon/theme-brand-icon.svg -->
<svg xmlns="http://www.w3.org/2000/svg" viewBox="0 0 24 24" width="24" height="24">
  <path fill="currentColor" d="M12 2C6.48 2 2 6.48 2 12s4.48 10 10 10 10-4.48 10-10S17.52 2 12 2zm0 18c-4.41 0-8-3.59-8-8s3.59-8 8-8 8 3.59 8 8-3.59 8-8 8zm-5-9c.83 0 1.5-.67 1.5-1.5S7.83 8 7 8s-1.5.67-1.5 1.5S6.17 11 7 11zm8-1.5c0-.83-.67-1.5-1.5-1.5s-1.5.67-1.5 1.5.67 1.5 1.5 1.5 1.5-.67 1.5-1.5zM12 16c1.93 0 3.5-1.57 3.5-3.5S13.93 9 12 9s-3.5 1.57-3.5 3.5S10.07 16 12 16z"/>
</svg>